HIERARCHY
ROOT Hips
{
	OFFSET -0.001795 -0.223333 0.028219
	CHANNELS 6 Xposition Yposition Zposition Zrotation Yrotation Xrotation 
	JOINT LeftUpLeg
	{
		OFFSET 0.069520 -0.091406 -0.006815
		CHANNELS 3 Zrotation Yrotation Xrotation
		JOINT LeftLeg
		{
			OFFSET 0.034277 -0.375199 -0.004496
			CHANNELS 3 Zrotation Yrotation Xrotation
			JOINT LeftFoot
			{
				OFFSET -0.013596 -0.397961 -0.043693
				CHANNELS 3 Zrotation Yrotation Xrotation
				JOINT LeftToe
				{
					OFFSET 0.026358 -0.055791 0.119288
					CHANNELS 3 Zrotation Yrotation Xrotation
					End Site
					{
						OFFSET 0.000000 0.000000 0.000000
					}
				}
			}
		}
	}
	JOINT RightUpLeg
	{
		OFFSET -0.067670 -0.090522 -0.004320
		CHANNELS 3 Zrotation Yrotation Xrotation
		JOINT RightLeg
		{
			OFFSET -0.038290 -0.382569 -0.008850
			CHANNELS 3 Zrotation Yrotation Xrotation
			JOINT RightFoot
			{
				OFFSET 0.015774 -0.398415 -0.042312
				CHANNELS 3 Zrotation Yrotation Xrotation
				JOINT RightToe
				{
					OFFSET -0.025372 -0.048144 0.123348
					CHANNELS 3 Zrotation Yrotation Xrotation
					End Site
					{
						OFFSET 0.000000 0.000000 0.000000
					}
				}
			}
		}
	}
	JOINT Spine
	{
		OFFSET -0.002533 0.108963 -0.026696
		CHANNELS 3 Zrotation Yrotation Xrotation
		JOINT Spine1
		{
			OFFSET 0.005487 0.135180 0.001092
			CHANNELS 3 Zrotation Yrotation Xrotation
			JOINT Spine2
			{
				OFFSET 0.001457 0.052922 0.025425
				CHANNELS 3 Zrotation Yrotation Xrotation
				JOINT Neck
				{
					OFFSET -0.002778 0.213870 -0.042857
					CHANNELS 3 Zrotation Yrotation Xrotation
					JOINT Head
					{
						OFFSET 0.005152 0.064970 0.051349
						CHANNELS 3 Zrotation Yrotation Xrotation
						End Site
						{
							OFFSET 0.000000 0.000000 0.000000
						}
					}
				}
				JOINT LeftShoulder
				{
					OFFSET 0.078845 0.121749 -0.034090
					CHANNELS 3 Zrotation Yrotation Xrotation
					JOINT LeftArm
					{
						OFFSET 0.090977 0.030469 -0.008868
						CHANNELS 3 Zrotation Yrotation Xrotation
						JOINT LeftForeArm
						{
							OFFSET 0.259612 -0.012772 -0.027456
							CHANNELS 3 Zrotation Yrotation Xrotation
							JOINT LeftHand
							{
								OFFSET 0.249234 0.008986 -0.001171
								CHANNELS 3 Zrotation Yrotation Xrotation
								End Site
								{
									OFFSET 0.000000 0.000000 0.000000
								}
							}
						}
					}
				}
				JOINT RightShoulder
				{
					OFFSET -0.081759 0.118833 -0.038615
					CHANNELS 3 Zrotation Yrotation Xrotation
					JOINT RightArm
					{
						OFFSET -0.096012 0.032551 -0.009143
						CHANNELS 3 Zrotation Yrotation Xrotation
						JOINT RightForeArm
						{
							OFFSET -0.253742 -0.013329 -0.021401
							CHANNELS 3 Zrotation Yrotation Xrotation
							JOINT RightHand
							{
								OFFSET -0.255298 0.007772 -0.005559
								CHANNELS 3 Zrotation Yrotation Xrotation
								End Site
								{
									OFFSET 0.000000 0.000000 0.000000
								}
							}
						}
					}
				}
			}
		}
	}
}
MOTION
Frames: 14
Frame Time: 0.050000
0.000000 0.928626 0.000000 -0.096176 6.722171 12.280309 7.441662 -1.272379 -23.348534 -10.963305 1.696487 13.933059 12.090431 24.303995 8.560689 0.000000 0.000000 0.000000 -7.752865 0.692127 -29.562815 6.874728 -1.334923 14.681516 -4.720847 -12.786039 8.464569 0.000000 0.000000 0.000000 6.967780 -3.399909 25.034162 -4.100930 1.671463 -20.384227 -1.474935 2.439592 26.209391 16.543094 -6.527887 -28.605931 0.000000 0.000000 0.000000 -12.867839 -24.818297 10.235104 -33.330739 -31.752791 2.431707 27.263232 -70.716509 -16.450594 0.000000 0.000000 0.000000 22.253430 12.764975 8.354736 31.857380 49.851170 6.986336 -38.516061 62.062622 -17.506832 0.000000 0.000000 0.000000 
-0.000567 0.928913 -0.000218 0.029277 6.983090 13.394485 7.921585 -1.276905 -24.219938 -11.589561 1.788776 13.453323 12.158674 24.454231 9.183306 0.000000 0.000000 0.000000 -8.847624 0.421554 -30.094113 8.860667 -1.790558 13.616763 -5.560335 -14.516515 9.237740 0.000000 0.000000 0.000000 6.511449 -3.003612 22.768165 -2.330683 1.231279 -20.170325 -1.931691 3.524758 26.970894 17.838405 -7.015164 -28.985472 0.000000 0.000000 0.000000 -14.336457 -24.034267 9.752776 -32.620781 -31.021840 2.129442 22.630581 -72.038115 -13.782003 0.000000 0.000000 0.000000 23.703477 11.584748 8.320730 30.606707 49.725582 6.276456 -39.679930 64.162649 -18.741387 0.000000 0.000000 0.000000 
-0.000887 0.928135 -0.000347 0.169412 7.396064 12.903453 8.062677 -1.264789 -24.012734 -12.429298 1.958378 13.874897 13.126000 25.959578 8.848536 0.000000 0.000000 0.000000 -8.440046 0.470038 -30.053080 7.831687 -1.643741 15.233329 -5.460969 -14.239466 8.583373 0.000000 0.000000 0.000000 7.325229 -3.170003 22.344453 -3.205805 1.467612 -19.267940 -1.899439 2.730099 26.234723 17.086522 -7.035119 -27.354352 0.000000 0.000000 0.000000 -14.929794 -23.699817 9.769611 -32.720136 -30.753382 2.138377 18.091498 -70.711972 -10.080376 0.000000 0.000000 0.000000 24.115732 11.444712 8.010387 30.442929 49.703226 6.317741 -34.933662 63.971432 -16.017062 0.000000 0.000000 0.000000 
-0.001021 0.928465 -0.000393 0.337128 7.167026 12.954467 7.942995 -1.310331 -24.781000 -12.418888 2.026415 14.760479 13.406991 26.392947 9.045735 0.000000 0.000000 0.000000 -8.907805 0.367002 -30.445697 8.285302 -1.773681 15.578011 -5.150477 -13.616910 8.308767 0.000000 0.000000 0.000000 7.851915 -3.253628 22.086636 -3.597327 1.570014 -18.837185 -2.327349 3.032773 25.871165 17.471602 -7.103353 -27.604013 0.000000 0.000000 0.000000 -14.461849 -23.444598 9.529995 -33.815245 -29.652548 2.067349 15.159272 -70.217369 -7.988922 0.000000 0.000000 0.000000 23.021178 10.564311 7.336871 32.909152 50.250289 7.573925 -32.653113 63.815357 -14.404619 0.000000 0.000000 0.000000 
-0.000996 0.927210 -0.000423 0.659362 7.022392 12.362409 7.348559 -1.368839 -24.430695 -12.071201 1.995989 15.449352 13.272665 26.209968 8.312913 0.000000 0.000000 0.000000 -9.058834 0.337790 -30.262014 8.261551 -1.801762 16.230142 -5.413294 -14.156921 8.252577 0.000000 0.000000 0.000000 7.786650 -3.264742 22.447607 -3.379173 1.513161 -19.136140 -2.246844 3.010030 26.403995 16.789148 -6.785939 -27.386584 0.000000 0.000000 0.000000 -15.128358 -23.327850 9.561350 -34.233509 -29.813019 2.149797 13.007030 -68.622957 -6.221542 0.000000 0.000000 0.000000 21.639595 10.786004 7.218414 34.382224 50.500060 8.339575 -30.467190 61.902200 -12.618351 0.000000 0.000000 0.000000 
-0.000914 0.927837 -0.000825 0.783537 6.813792 12.252364 7.036670 -1.391960 -24.214953 -11.981909 1.978260 15.256709 13.018754 25.781032 8.523412 0.000000 0.000000 0.000000 -9.230140 0.307826 -30.554904 8.348069 -1.834485 16.563659 -5.248345 -13.828885 8.032256 0.000000 0.000000 0.000000 7.874122 -3.261928 22.385825 -3.461701 1.532769 -19.222870 -2.144376 3.422075 26.380799 16.769047 -6.648006 -27.731688 0.000000 0.000000 0.000000 -14.660951 -23.711070 9.629302 -34.591982 -29.349358 2.085513 7.919125 -67.908940 -2.806743 0.000000 0.000000 0.000000 21.449614 10.782367 7.270727 34.163777 49.947215 8.086016 -29.457833 61.388926 -11.902410 0.000000 0.000000 0.000000 
-0.000719 0.927905 -0.001482 1.089640 6.888188 12.145199 6.630715 -1.461947 -24.252691 -11.973437 1.964989 15.192269 13.181003 26.002314 9.047024 0.000000 0.000000 0.000000 -9.497595 0.226263 -30.598497 8.377590 -1.860797 16.761455 -5.396655 -14.116742 7.971730 0.000000 0.000000 0.000000 7.816155 -3.264585 22.512977 -3.138869 1.450494 -19.248409 -2.239918 3.421074 26.266755 16.358625 -6.274066 -28.161521 0.000000 0.000000 0.000000 -14.458537 -23.630774 9.541745 -34.861637 -28.912846 2.028444 4.366058 -67.638742 -0.462532 0.000000 0.000000 0.000000 21.364414 10.969462 7.381504 34.220819 49.542347 8.003415 -28.400465 60.924243 -11.204723 0.000000 0.000000 0.000000 
-0.000450 0.928412 -0.002149 1.242162 6.921533 12.082459 6.562574 -1.462488 -24.059717 -12.327473 2.021130 14.892148 13.104963 25.881779 8.991548 0.000000 0.000000 0.000000 -9.588252 0.190588 -30.889940 8.128464 -1.824048 17.266649 -5.354309 -14.026289 7.968541 0.000000 0.000000 0.000000 7.941386 -3.306196 22.570616 -3.180245 1.460221 -19.443681 -2.248833 3.528557 26.331741 16.441856 -6.399272 -27.844093 0.000000 0.000000 0.000000 -14.385162 -23.760802 9.573542 -34.467491 -28.561036 1.880493 0.516412 -67.227558 2.037039 0.000000 0.000000 0.000000 21.896382 10.760220 7.378053 33.682669 48.953273 7.544662 -27.274835 61.187968 -10.619831 0.000000 0.000000 0.000000 
0.000047 0.929006 -0.002482 1.336578 6.916636 12.037712 6.355227 -1.489059 -23.981583 -12.389600 2.015175 14.585694 13.142339 25.920988 9.241126 0.000000 0.000000 0.000000 -9.413471 0.229412 -31.023110 7.712735 -1.717278 17.464228 -5.258585 -13.829158 7.968387 0.000000 0.000000 0.000000 8.019057 -3.333392 22.629616 -2.991113 1.411887 -19.404138 -2.303321 3.582380 26.180400 16.291843 -6.352848 -27.594931 0.000000 0.000000 0.000000 -14.088065 -23.679354 9.484881 -34.223050 -28.469119 1.835174 -2.313549 -67.376250 3.880368 0.000000 0.000000 0.000000 22.039189 10.789097 7.431053 33.434285 48.686621 7.366110 -26.562657 60.892621 -10.166479 0.000000 0.000000 0.000000 
0.000660 0.929637 -0.002493 1.494312 6.985226 11.883794 6.018251 -1.527298 -23.740284 -12.381385 1.998700 14.439986 13.271653 26.093664 9.404418 0.000000 0.000000 0.000000 -9.448180 0.203617 -31.210072 7.450575 -1.675145 17.970586 -5.259089 -13.835185 8.183076 0.000000 0.000000 0.000000 8.038913 -3.371209 22.861267 -2.935711 1.399048 -19.565562 -2.255674 3.466328 26.207228 16.411921 -6.386567 -27.802650 0.000000 0.000000 0.000000 -13.744688 -23.790906 9.517883 -34.156894 -28.437775 1.814225 -3.194186 -67.506903 4.474920 0.000000 0.000000 0.000000 21.903500 10.785483 7.386058 33.703303 48.383178 7.378534 -26.084291 60.634965 -9.844923 0.000000 0.000000 0.000000 
0.001366 0.930185 -0.002231 1.479736 7.033747 11.773686 5.815544 -1.552277 -23.640551 -12.334283 1.985691 14.452641 13.466169 26.376335 9.461805 0.000000 0.000000 0.000000 -9.404754 0.206380 -31.234264 7.319067 -1.658607 18.302790 -5.199336 -13.707455 8.177032 0.000000 0.000000 0.000000 8.166408 -3.403146 22.852231 -2.791907 1.363386 -19.544614 -2.317708 3.328760 26.161980 16.710855 -6.574236 -27.795966 0.000000 0.000000 0.000000 -13.604386 -23.893911 9.574350 -34.248616 -28.517840 1.848987 -4.162629 -67.493483 5.143042 0.000000 0.000000 0.000000 21.825370 10.771900 7.325755 33.727261 48.173961 7.336920 -25.880827 60.135299 -9.667362 0.000000 0.000000 0.000000 
0.001957 0.930454 -0.001822 1.528412 7.320005 11.704012 5.576271 -1.604540 -23.667291 -12.440225 1.997834 14.610087 13.426547 26.328096 9.369662 0.000000 0.000000 0.000000 -9.534524 0.137612 -31.272471 7.219902 -1.665236 18.630533 -5.075297 -13.425302 8.203842 0.000000 0.000000 0.000000 8.264112 -3.449303 22.897884 -2.804860 1.372387 -19.564327 -2.429822 3.054527 26.072600 17.028881 -6.687146 -28.139015 0.000000 0.000000 0.000000 -13.492736 -24.051812 9.660967 -34.300882 -28.622485 1.888960 -5.028957 -67.719524 5.770913 0.000000 0.000000 0.000000 21.936501 10.850062 7.347479 34.105965 47.789077 7.363005 -26.531512 59.768233 -9.971107 0.000000 0.000000 0.000000 
0.002425 0.930405 -0.001229 1.570798 7.679647 11.797126 5.417102 -1.667294 -23.920437 -12.562292 2.015525 14.891540 13.494636 26.460293 9.203060 0.000000 0.000000 0.000000 -9.547273 0.088708 -31.406882 7.035769 -1.659004 19.094585 -5.106573 -13.432502 7.924586 0.000000 0.000000 0.000000 8.362884 -3.477217 22.763812 -2.579212 1.320227 -19.642387 -2.621269 2.965515 26.037444 17.531483 -6.881993 -28.426297 0.000000 0.000000 0.000000 -13.429927 -24.280263 9.737464 -34.317393 -28.819029 1.949862 -4.758831 -67.665309 5.561865 0.000000 0.000000 0.000000 22.199531 10.856919 7.432152 33.905218 47.714941 7.248420 -26.665956 59.159413 -9.910238 0.000000 0.000000 0.000000 
0.002739 0.930206 -0.000518 1.567612 7.847126 11.728450 5.352757 -1.691406 -24.003921 -12.729425 2.051151 15.087243 13.701872 26.765738 9.348141 0.000000 0.000000 0.000000 -9.625355 0.051535 -31.305869 6.823933 -1.612705 19.218388 -4.899930 -12.974216 7.720820 0.000000 0.000000 0.000000 8.517537 -3.522662 22.744006 -2.585904 1.324272 -19.803481 -2.797887 2.906896 26.078509 18.003524 -7.090049 -28.676102 0.000000 0.000000 0.000000 -13.512724 -24.587962 9.887469 -34.082335 -28.960006 1.961520 -4.217169 -67.667108 5.189951 0.000000 0.000000 0.000000 22.312411 10.803131 7.424249 34.167581 47.749230 7.349839 -26.852409 58.311165 -9.829914 0.000000 0.000000 0.000000 
